<?xml version="1.0" standalone="no"?>
<!DOCTYPE svg PUBLIC "-//W3C//DTD SVG 20010904//EN"
 "http://www.w3.org/TR/2001/REC-SVG-20010904/DTD/svg10.dtd">
<svg version="1.0" xmlns="http://www.w3.org/2000/svg"
 width="1563.000000pt" height="1563.000000pt" viewBox="0 0 1563.000000 1563.000000"
 preserveAspectRatio="xMidYMid meet">
<metadata>
Created by potrace 1.14, written by Peter Selinger 2001-2017
</metadata>
<g transform="translate(0.000000,1563.000000) scale(0.100000,-0.100000)"
fill="#000000" stroke="none">
<path d="M10827 14817 c10 -16 231 -280 366 -437 l56 -65 -32 -29 c-18 -15
-49 -42 -71 -60 -21 -17 -54 -45 -75 -62 -20 -18 -155 -132 -301 -254 -146
-122 -276 -231 -290 -244 -14 -12 -146 -123 -295 -247 -148 -124 -315 -264
-370 -310 -55 -46 -185 -156 -290 -244 -104 -88 -201 -169 -215 -181 -14 -12
-70 -59 -125 -105 -167 -139 -340 -283 -345 -289 -3 -3 -70 -60 -150 -127 -80
-66 -176 -147 -215 -180 -38 -32 -169 -142 -290 -243 -121 -102 -287 -241
-369 -310 -426 -357 -555 -466 -601 -504 -27 -22 -65 -55 -85 -72 -19 -17
-118 -100 -220 -185 -102 -84 -187 -156 -190 -159 -3 -3 -86 -73 -185 -155
-99 -82 -182 -152 -185 -155 -5 -5 -104 -89 -145 -122 -11 -9 -56 -47 -101
-85 -44 -37 -102 -87 -130 -109 -27 -23 -123 -104 -214 -180 -91 -76 -173
-146 -183 -154 -10 -8 -28 -23 -40 -34 -12 -10 -42 -35 -67 -55 -25 -20 -47
-39 -50 -42 -3 -3 -48 -41 -100 -84 -52 -43 -97 -81 -100 -85 -3 -3 -72 -62
-155 -130 -82 -68 -152 -127 -155 -130 -3 -3 -27 -24 -55 -45 -27 -22 -65 -54
-85 -72 -19 -17 -98 -84 -175 -148 -77 -64 -150 -125 -162 -135 -12 -11 -93
-79 -180 -152 -87 -72 -255 -213 -373 -312 -118 -100 -226 -190 -239 -201 -13
-11 -56 -47 -95 -80 -39 -33 -125 -105 -191 -160 -66 -55 -122 -102 -125 -105
-3 -3 -45 -39 -95 -80 -49 -42 -146 -123 -215 -181 -69 -58 -181 -152 -250
-209 -69 -58 -136 -114 -149 -125 -13 -11 -29 -25 -35 -30 -6 -6 -81 -68 -166
-140 -85 -71 -157 -132 -160 -135 -3 -3 -57 -48 -120 -100 -63 -52 -117 -97
-120 -100 -3 -4 -85 -73 -183 -154 l-177 -148 0 -1094 c0 -602 2 -1094 4
-1094 5 0 119 93 142 115 6 5 32 28 59 50 26 22 80 67 120 100 39 33 95 80
125 105 30 25 73 61 96 80 23 19 52 44 65 55 13 11 85 71 159 133 74 63 155
131 180 152 227 190 451 378 525 440 50 41 92 77 95 80 6 6 81 69 315 265 182
152 328 275 625 524 74 62 157 132 185 155 27 22 79 66 115 96 86 73 440 370
464 390 10 8 23 20 30 25 6 6 38 33 71 60 33 28 62 52 65 55 3 3 59 50 125
105 66 55 122 102 125 105 6 6 60 51 465 390 154 129 312 261 351 294 39 34
93 79 120 102 136 114 1192 999 1284 1078 14 11 66 55 115 96 50 41 92 77 95
80 3 3 73 61 155 130 83 69 161 135 175 146 14 12 59 50 100 84 41 34 86 71
100 83 14 12 86 73 160 135 74 63 146 123 160 135 24 20 121 102 165 138 11 9
67 57 125 106 58 49 161 135 230 193 69 57 179 149 245 205 245 206 373 314
495 415 69 58 130 109 136 115 6 5 33 28 59 50 27 22 110 92 185 155 75 63
215 180 310 260 211 177 506 424 540 454 14 11 77 64 140 117 63 53 234 196
380 319 146 122 285 239 310 260 25 21 119 100 210 176 262 221 271 227 279
218 10 -11 231 -277 339 -407 45 -55 83 -96 83 -91 3 18 6 103 13 334 4 129 9
289 11 355 14 455 17 562 30 990 4 127 8 251 9 277 2 26 0 51 -3 56 -6 9 -38
17 -116 27 -22 3 -53 7 -70 10 -16 3 -47 7 -67 10 -21 3 -55 7 -75 10 -21 4
-56 8 -78 11 -22 3 -51 8 -65 10 -14 2 -61 9 -105 15 -44 5 -87 12 -95 14 -8
2 -40 7 -70 10 -30 3 -62 8 -70 10 -8 2 -40 7 -70 10 -30 4 -57 8 -60 10 -3 1
-36 6 -75 10 -38 4 -73 9 -76 11 -4 2 -31 6 -61 9 -30 3 -66 8 -79 10 -13 3
-74 12 -136 20 -62 9 -120 18 -130 19 -17 3 -101 15 -148 21 -11 2 -69 10
-130 19 -60 9 -126 19 -145 21 -20 3 -46 7 -58 10 -16 3 -20 0 -15 -8z"/>
<path d="M10912 9493 c40 -49 118 -142 173 -208 55 -66 102 -122 105 -125 3
-3 22 -26 43 -52 29 -37 34 -49 24 -55 -8 -4 -36 -26 -62 -48 -40 -33 -121
-101 -280 -233 -11 -9 -45 -38 -75 -63 -30 -25 -215 -178 -410 -340 -195 -162
-488 -405 -650 -540 -259 -215 -852 -708 -1100 -913 -47 -39 -93 -78 -104 -86
-10 -8 -23 -20 -30 -25 -6 -6 -67 -57 -136 -113 -69 -57 -134 -111 -145 -120
-11 -10 -87 -74 -170 -142 -82 -69 -159 -132 -170 -142 -11 -9 -265 -220 -565
-468 -300 -249 -567 -471 -595 -495 -27 -23 -79 -66 -115 -96 -78 -64 -418
-346 -1620 -1345 -212 -176 -479 -398 -595 -494 -186 -154 -525 -435 -580
-481 -11 -10 -41 -34 -66 -55 -25 -22 -63 -54 -85 -71 -22 -18 -56 -46 -75
-61 -19 -16 -185 -155 -369 -308 -184 -152 -387 -321 -450 -373 -63 -53 -124
-104 -135 -113 -104 -87 -712 -590 -742 -615 -21 -17 -48 -39 -59 -50 -12 -10
-87 -72 -167 -138 l-146 -120 -1 -502 0 -503 713 0 713 0 70 58 c38 32 215
180 394 328 515 427 931 773 980 814 36 30 267 222 525 435 53 44 664 552 690
573 56 47 613 509 629 522 10 8 23 20 30 25 6 6 67 57 136 114 69 57 145 120
170 141 46 39 449 373 529 439 24 20 49 41 55 46 6 6 49 42 96 80 47 39 94 77
105 87 11 9 54 44 95 78 41 34 86 72 100 83 14 12 77 65 140 117 63 52 126
105 140 117 14 11 95 79 180 149 85 71 160 133 166 139 7 5 31 26 55 45 23 19
234 194 468 388 234 195 444 368 466 387 114 94 666 553 705 586 25 20 106 88
180 149 74 61 144 119 155 128 23 20 422 351 820 681 154 128 291 242 305 254
14 12 129 108 255 212 127 104 311 257 410 340 99 82 202 168 229 190 27 22
54 45 61 52 16 15 18 14 125 -117 52 -63 99 -120 105 -126 5 -6 55 -66 109
-132 55 -67 102 -119 105 -116 3 2 6 28 7 57 0 28 4 133 8 232 4 99 9 239 11
310 13 363 25 699 30 815 2 47 7 171 10 275 4 105 8 220 9 257 4 77 21 67
-149 93 -55 9 -111 18 -125 20 -14 2 -59 9 -100 14 -41 6 -131 19 -200 30 -69
11 -145 22 -170 26 -25 3 -70 10 -100 15 -30 5 -75 12 -100 15 -25 4 -117 17
-205 31 -88 14 -176 27 -195 29 -52 7 -122 17 -145 21 -35 7 -79 13 -120 19
-22 3 -51 7 -65 10 -30 5 -92 14 -140 21 -19 2 -59 9 -89 14 -111 20 -111 20
-29 -77z"/>
</g>
</svg>
